<svg width="21" height="18" viewBox="0 0 21 18" fill="none" xmlns="http://www.w3.org/2000/svg">
<path d="M17.5689 7.53161C16.8883 5.44559 17.3658 3.20131 18.098 1.13279C18.1834 0.891776 18.1561 0.623009 18.0195 0.403236C17.8644 0.152651 17.5914 0 17.2968 0H3.71515C3.42061 0 3.14759 0.152651 2.99245 0.403236C2.83731 0.653822 2.8232 0.966601 2.95512 1.22965C3.89771 3.11397 4.09182 5.3237 3.50857 7.32917C2.94685 9.10145 2.12458 10.7169 1.32892 12.2785C1.08394 12.7591 0.84395 13.2327 0.612793 13.7045L4.44125 15.6189C8.18496 17.4908 12.8148 17.4908 16.5585 15.6189L20.3964 13.7001C20.1682 13.2357 19.9312 12.77 19.6899 12.2976C18.9217 10.7962 18.1269 9.2421 17.5689 7.53161ZM10.4998 15.3501C10.0305 15.3501 9.65013 14.9697 9.65013 14.5004C9.65013 14.0311 10.0305 13.6508 10.4998 13.6508C10.969 13.6508 11.3494 14.0311 11.3494 14.5004C11.3494 14.9697 10.969 15.3501 10.4998 15.3501Z" fill="white"/>
</svg>
