<svg width="28" height="27" viewBox="0 0 28 27" fill="none" xmlns="http://www.w3.org/2000/svg">
<path d="M21.642 8.32025L20.8386 11.9348H18.2811C17.9764 13.4282 16.6533 14.5559 15.0708 14.5559C13.2642 14.5559 11.7944 13.0861 11.7944 11.2795C11.7944 9.47289 13.2642 8.00309 15.0708 8.00309C16.6527 8.00309 17.9764 9.13084 18.2811 10.6242H19.7876L21.6053 2.44366L24.3064 13.9223L26.4099 8.00964C26.3201 7.75212 26.2598 7.59813 26.2572 7.59157L26.2205 7.46248L25.4492 3.09239C25.2644 2.04656 24.866 1.08788 24.3116 0.247803L22.893 0.484359C21.815 0.663907 20.7941 1.11999 19.9402 1.80279C18.6382 2.84273 17.0039 3.4161 15.3375 3.4161H15.2294C13.6161 3.4161 12.0775 2.89122 10.8069 1.93385C10.168 3.3604 9.82855 4.90491 9.82855 6.49397V6.84914C9.82855 9.65375 7.57568 11.9348 4.80711 11.9348C3.06733 11.9348 1.41798 11.3477 0.0844727 10.2671C0.419978 13.3024 1.73513 16.1679 3.87333 18.4706C6.7225 21.5393 10.2833 23.9855 14.1711 25.5457L17.4534 26.8609C18.0242 27.0889 18.7168 27.0476 19.1978 26.6558L19.5228 26.3904C23.4388 23.1854 26.2768 18.7242 27.5212 13.8207C27.514 12.7709 27.3653 11.7192 27.1733 10.7841L24.1839 19.122L21.642 8.32025Z" fill="white"/>
</svg>
